<svg xmlns="http://www.w3.org/2000/svg" xmlns:xlink="http://www.w3.org/1999/xlink" contentStyleType="text/css" data-diagram-type="DESCRIPTION" height="1339px" preserveAspectRatio="none" style="width:1494px;height:1339px;background:#FFFFFF;" version="1.1" viewBox="0 0 1494 1339" width="1494px" zoomAndPan="magnify"><?plantuml 1.2026.3beta5?><defs/><g><!--cluster SENSE--><g class="cluster" data-qualified-name="SENSE" data-source-line="33" id="ent0002"><path d="M15,873 L84.3232,873 A6,6 0 0 1 88.3232,877 L95.3232,890.6406 L131.45,890.6406 A4,4 0 0 1 135.45,894.6406 L135.45,1215 A4,4 0 0 1 131.45,1219 L15,1219 A4,4 0 0 1 11,1215 L11,877 A4,4 0 0 1 15,873" fill="#D6E8F7" style="stroke:#666666;stroke-width:1;"/><line style="stroke:#666666;stroke-width:1;" x1="11" x2="95.3232" y1="890.6406" y2="890.6406"/><text fill="#000000" font-family="Arial" font-size="10" font-weight="700" lengthAdjust="spacing" textLength="71.3232" x="15" y="884.2822">SENSE Panel</text></g><!--cluster TRIGGER--><g class="cluster" data-qualified-name="TRIGGER" data-source-line="51" id="ent0011"><path d="M317.43,768 L519.9417,768 A6,6 0 0 1 523.9417,772 L530.9417,785.6406 L528.45,785.6406 A4,4 0 0 1 532.45,789.6406 L532.45,1320 A4,4 0 0 1 528.45,1324 L317.43,1324 A4,4 0 0 1 313.43,1320 L313.43,772 A4,4 0 0 1 317.43,768" fill="#FFFFF0" style="stroke:#666666;stroke-width:1;"/><line style="stroke:#666666;stroke-width:1;" x1="313.43" x2="530.9417" y1="785.6406" y2="785.6406"/><text fill="#000000" font-family="Arial" font-size="10" font-weight="700" lengthAdjust="spacing" textLength="204.5117" x="317.43" y="779.2822">Data Aggregation &amp; TRIGGER RULES</text></g><!--cluster FRAUD--><g class="cluster" data-qualified-name="FRAUD" data-source-line="71" id="ent0019"><path d="M253.55,11 L583.8205,11 A6,6 0 0 1 587.8205,15 L594.8205,28.6406 L593.33,28.6406 A4,4 0 0 1 597.33,32.6406 L597.33,740 A4,4 0 0 1 593.33,744 L253.55,744 A4,4 0 0 1 249.55,740 L249.55,15 A4,4 0 0 1 253.55,11" fill="#FFF0F0" style="stroke:#666666;stroke-width:1;"/><line style="stroke:#666666;stroke-width:1;" x1="249.55" x2="594.8205" y1="28.6406" y2="28.6406"/><text fill="#000000" font-family="Arial" font-size="10" font-weight="700" lengthAdjust="spacing" textLength="332.2705" x="253.55" y="22.2822">DECIDE &amp; PROTECT - Advanced Fraud and Validation Gates</text></g><!--cluster V3--><g class="cluster" data-qualified-name="FRAUD.V3" data-source-line="73" id="ent0020"><path d="M311.55,489 L525.0871,489 A6,6 0 0 1 529.0871,493 L536.0871,506.6406 L534.33,506.6406 A4,4 0 0 1 538.33,510.6406 L538.33,716 A4,4 0 0 1 534.33,720 L311.55,720 A4,4 0 0 1 307.55,716 L307.55,493 A4,4 0 0 1 311.55,489" fill="#FFE0E0" style="stroke:#666666;stroke-width:1;"/><line style="stroke:#666666;stroke-width:1;" x1="307.55" x2="536.0871" y1="506.6406" y2="506.6406"/><text fill="#000000" font-family="Arial" font-size="10" font-weight="700" lengthAdjust="spacing" textLength="215.5371" x="311.55" y="500.2822">Vector 3 - Networked Collusion (Sybil)</text></g><!--cluster V2--><g class="cluster" data-qualified-name="FRAUD.V2" data-source-line="78" id="ent0023"><path d="M316.59,274 L502.2072,274 A6,6 0 0 1 506.2072,278 L513.2072,291.6406 L529.28,291.6406 A4,4 0 0 1 533.28,295.6406 L533.28,461 A4,4 0 0 1 529.28,465 L316.59,465 A4,4 0 0 1 312.59,461 L312.59,278 A4,4 0 0 1 316.59,274" fill="#FFE0E0" style="stroke:#666666;stroke-width:1;"/><line style="stroke:#666666;stroke-width:1;" x1="312.59" x2="513.2072" y1="291.6406" y2="291.6406"/><text fill="#000000" font-family="Arial" font-size="10" font-weight="700" lengthAdjust="spacing" textLength="187.6172" x="316.59" y="285.2822">Vector 2 - Activity + Intent Fraud</text></g><!--cluster V1--><g class="cluster" data-qualified-name="FRAUD.V1" data-source-line="83" id="ent0026"><path d="M319.96,49 L503.0284,49 A6,6 0 0 1 507.0284,53 L514.0284,66.6406 L525.91,66.6406 A4,4 0 0 1 529.91,70.6406 L529.91,246 A4,4 0 0 1 525.91,250 L319.96,250 A4,4 0 0 1 315.96,246 L315.96,53 A4,4 0 0 1 319.96,49" fill="#FFE0E0" style="stroke:#666666;stroke-width:1;"/><line style="stroke:#666666;stroke-width:1;" x1="315.96" x2="514.0284" y1="66.6406" y2="66.6406"/><text fill="#000000" font-family="Arial" font-size="10" font-weight="700" lengthAdjust="spacing" textLength="185.0684" x="319.96" y="60.2822">Vector 1 - Spatial / GPS Spoofing</text></g><!--cluster PRICE--><g class="cluster" data-qualified-name="PRICE" data-source-line="99" id="ent0031"><path d="M630.28,629 L699.1931,629 A6,6 0 0 1 703.1931,633 L710.1931,646.6406 L944.81,646.6406 A4,4 0 0 1 948.81,650.6406 L948.81,886 A4,4 0 0 1 944.81,890 L630.28,890 A4,4 0 0 1 626.28,886 L626.28,633 A4,4 0 0 1 630.28,629" fill="#F0FFF4" style="stroke:#666666;stroke-width:1;"/><line style="stroke:#666666;stroke-width:1;" x1="626.28" x2="710.1931" y1="646.6406" y2="646.6406"/><text fill="#000000" font-family="Arial" font-size="10" font-weight="700" lengthAdjust="spacing" textLength="70.9131" x="630.28" y="640.2822">PRICE &amp; PAY</text></g><!--cluster SETTLE--><g class="cluster" data-qualified-name="SETTLE" data-source-line="110" id="ent0037"><path d="M989.87,792 L1113.4169,792 A6,6 0 0 1 1117.4169,796 L1124.4169,809.6406 L1475.62,809.6406 A4,4 0 0 1 1479.62,813.6406 L1479.62,929 A4,4 0 0 1 1475.62,933 L989.87,933 A4,4 0 0 1 985.87,929 L985.87,796 A4,4 0 0 1 989.87,792" fill="#EDEDFF" style="stroke:#666666;stroke-width:1;"/><line style="stroke:#666666;stroke-width:1;" x1="985.87" x2="1124.4169" y1="809.6406" y2="809.6406"/><text fill="#000000" font-family="Arial" font-size="10" font-weight="700" lengthAdjust="spacing" textLength="125.5469" x="989.87" y="803.2822">SETTLEMENT &amp; LEARN</text></g><!--entity GPS--><g class="entity" data-qualified-name="SENSE.GPS" data-source-line="34" id="ent0003"><rect fill="#FFFFFF" height="30" rx="3" ry="3" style="stroke:#888888;stroke-width:1;" width="84.6563" x="30.9" y="1173"/><text fill="#000000" font-family="Arial" font-size="8" lengthAdjust="spacing" textLength="64.6563" x="40.9" y="1190.4258">Rider GPS Trace</text></g><!--entity GMAPS--><g class="entity" data-qualified-name="SENSE.GMAPS" data-source-line="35" id="ent0004"><rect fill="#FFFFFF" height="30" rx="3" ry="3" style="stroke:#888888;stroke-width:1;" width="87.0039" x="29.72" y="1128"/><text fill="#000000" font-family="Arial" font-size="8" lengthAdjust="spacing" textLength="67.0039" x="39.72" y="1145.4258">Google Maps API</text></g><!--entity DOWN--><g class="entity" data-qualified-name="SENSE.DOWN" data-source-line="36" id="ent0005"><rect fill="#FFFFFF" height="30" rx="3" ry="3" style="stroke:#888888;stroke-width:1;" width="76.4453" x="35" y="1083"/><text fill="#000000" font-family="Arial" font-size="8" lengthAdjust="spacing" textLength="56.4453" x="45" y="1100.4258">Downdetector</text></g><!--entity PLATFORM--><g class="entity" data-qualified-name="SENSE.PLATFORM" data-source-line="37" id="ent0006"><rect fill="#FFFFFF" height="30" rx="3" ry="3" style="stroke:#888888;stroke-width:1;" width="92.4492" x="27" y="1038"/><text fill="#000000" font-family="Arial" font-size="8" lengthAdjust="spacing" textLength="72.4492" x="37" y="1055.4258">Platform Mock API</text></g><!--entity NEWS--><g class="entity" data-qualified-name="SENSE.NEWS" data-source-line="38" id="ent0007"><rect fill="#FFFFFF" height="30" rx="3" ry="3" style="stroke:#888888;stroke-width:1;" width="54.2734" x="46.09" y="993"/><text fill="#000000" font-family="Arial" font-size="8" lengthAdjust="spacing" textLength="34.2734" x="56.09" y="1010.4258">NewsAPI</text></g><!--entity CPCB--><g class="entity" data-qualified-name="SENSE.CPCB" data-source-line="39" id="ent0008"><rect fill="#FFFFFF" height="30" rx="3" ry="3" style="stroke:#888888;stroke-width:1;" width="82.4023" x="32.02" y="948"/><text fill="#000000" font-family="Arial" font-size="8" lengthAdjust="spacing" textLength="62.4023" x="42.02" y="965.4258">CPCB / OpenAQ</text></g><!--entity IMD--><g class="entity" data-qualified-name="SENSE.IMD" data-source-line="40" id="ent0009"><rect fill="#FFFFFF" height="30" rx="3" ry="3" style="stroke:#888888;stroke-width:1;" width="80.1172" x="33.17" y="903"/><text fill="#000000" font-family="Arial" font-size="8" lengthAdjust="spacing" textLength="60.1172" x="43.17" y="920.4258">&#9729;IMD Weather</text></g><!--entity OUTAGE--><g class="entity" data-qualified-name="TRIGGER.OUTAGE" data-source-line="53" id="ent0012"><rect fill="#E3F2FD" height="60" rx="3" ry="3" style="stroke:#888888;stroke-width:1;" width="105.9297" x="369.97" y="1248"/><text fill="#000000" font-family="Arial" font-size="8" font-weight="700" lengthAdjust="spacing" textLength="32.8711" x="379.97" y="1265.4258">Outage</text><text fill="#000000" font-family="Arial" font-size="8" lengthAdjust="spacing" textLength="85.9297" x="379.97" y="1275.4258">500 reports, nc times</text><text fill="#000000" font-family="Arial" font-size="8" lengthAdjust="spacing" textLength="55.8359" x="379.97" y="1285.4258">&gt; 455 reports</text><text fill="#000000" font-family="Arial" font-size="8" lengthAdjust="spacing" textLength="63.7734" x="379.97" y="1295.4258">&gt; 500 min zone</text></g><!--entity CONGESTION--><g class="entity" data-qualified-name="TRIGGER.CONGESTION" data-source-line="55" id="ent0013"><rect fill="#F3E5F5" height="60" rx="3" ry="3" style="stroke:#888888;stroke-width:1;" width="103" x="371.44" y="1173"/><text fill="#000000" font-family="Arial" font-size="8" font-weight="700" lengthAdjust="spacing" textLength="50.7344" x="381.44" y="1190.4258">Congestion</text><text fill="#000000" font-family="Arial" font-size="8" lengthAdjust="spacing" textLength="80.2344" x="381.44" y="1200.4258">Travel time &gt; 200%</text><text fill="#000000" font-family="Arial" font-size="8" lengthAdjust="spacing" textLength="83" x="381.44" y="1210.4258">baseline - score zero</text><text fill="#000000" font-family="Arial" font-size="8" lengthAdjust="spacing" textLength="65.6992" x="381.44" y="1220.4258">riders in window</text></g><!--entity BANDH--><g class="entity" data-qualified-name="TRIGGER.BANDH" data-source-line="57" id="ent0014"><rect fill="#FFF8E1" height="60" rx="3" ry="3" style="stroke:#888888;stroke-width:1;" width="92.8438" x="376.52" y="1098"/><text fill="#000000" font-family="Arial" font-size="8" font-weight="700" lengthAdjust="spacing" textLength="28.6133" x="386.52" y="1115.4258">Bandh</text><text fill="#000000" font-family="Arial" font-size="8" lengthAdjust="spacing" textLength="72.8438" x="386.52" y="1125.4258">Keyword detected</text><text fill="#000000" font-family="Arial" font-size="8" lengthAdjust="spacing" textLength="50.5703" x="386.52" y="1135.4258">+ bandh/rnn</text><text fill="#000000" font-family="Arial" font-size="8" lengthAdjust="spacing" textLength="71.9258" x="386.52" y="1145.4258">+ 65% order drop</text></g><!--entity AQI--><g class="entity" data-qualified-name="TRIGGER.AQI" data-source-line="59" id="ent0015"><rect fill="#E8F5E9" height="60" rx="3" ry="3" style="stroke:#888888;stroke-width:1;" width="108.5781" x="368.65" y="1023"/><text fill="#000000" font-family="Arial" font-size="8" font-weight="700" lengthAdjust="spacing" textLength="15.9688" x="378.65" y="1040.4258">AQI</text><text fill="#000000" font-family="Arial" font-size="8" lengthAdjust="spacing" textLength="68.0938" x="378.65" y="1050.4258">&gt; 400 zone, 3h+</text><text fill="#000000" font-family="Arial" font-size="8" lengthAdjust="spacing" textLength="88.5781" x="378.65" y="1060.4258">OpenAIIndex, severity</text><text fill="#000000" font-family="Arial" font-size="8" lengthAdjust="spacing" textLength="67.8008" x="378.65" y="1070.4258">near classrocked</text></g><!--entity FOG--><g class="entity" data-qualified-name="TRIGGER.FOG" data-source-line="61" id="ent0016"><rect fill="#E3F2FD" height="60" rx="3" ry="3" style="stroke:#888888;stroke-width:1;" width="115.0195" x="365.43" y="948"/><text fill="#000000" font-family="Arial" font-size="8" font-weight="700" lengthAdjust="spacing" textLength="16.6875" x="375.43" y="965.4258">Fog</text><text fill="#000000" font-family="Arial" font-size="8" lengthAdjust="spacing" textLength="76.1875" x="375.43" y="975.4258">Visibility &lt; 1000 m</text><text fill="#000000" font-family="Arial" font-size="8" lengthAdjust="spacing" textLength="72.168" x="375.43" y="985.4258">Index fog severity</text><text fill="#000000" font-family="Arial" font-size="8" lengthAdjust="spacing" textLength="95.0195" x="375.43" y="995.4258">evening peak wind only</text></g><!--entity HEAT--><g class="entity" data-qualified-name="TRIGGER.HEAT" data-source-line="63" id="ent0017"><rect fill="#FFEBEE" height="60" rx="3" ry="3" style="stroke:#888888;stroke-width:1;" width="101.9688" x="371.95" y="873"/><text fill="#000000" font-family="Arial" font-size="8" font-weight="700" lengthAdjust="spacing" textLength="21.3438" x="381.95" y="890.4258">Heat</text><text fill="#000000" font-family="Arial" font-size="8" lengthAdjust="spacing" textLength="53.7188" x="381.95" y="900.4258">Index &#8805; 44&#176;C</text><text fill="#000000" font-family="Arial" font-size="8" lengthAdjust="spacing" textLength="58.8086" x="381.95" y="910.4258">Index &#8805; 244&#176;C</text><text fill="#000000" font-family="Arial" font-size="8" lengthAdjust="spacing" textLength="81.9688" x="381.95" y="920.4258">IMD Red Alert active</text></g><!--entity RAIN--><g class="entity" data-qualified-name="TRIGGER.RAIN" data-source-line="65" id="ent0018"><rect fill="#E3F2FD" height="60" rx="3" ry="3" style="stroke:#888888;stroke-width:1;" width="95.793" x="375.04" y="798"/><text fill="#000000" font-family="Arial" font-size="8" font-weight="700" lengthAdjust="spacing" textLength="19.9961" x="385.04" y="815.4258">Rain</text><text fill="#000000" font-family="Arial" font-size="8" lengthAdjust="spacing" textLength="70.7734" x="385.04" y="825.4258">Index &#8805; 25mm/hr</text><text fill="#000000" font-family="Arial" font-size="8" lengthAdjust="spacing" textLength="50.3633" x="385.04" y="835.4258">for 25mm/hr</text><text fill="#000000" font-family="Arial" font-size="8" lengthAdjust="spacing" textLength="75.793" x="385.04" y="845.4258">90+ min sustained</text></g><!--entity V3_TECH--><g class="entity" data-qualified-name="FRAUD.V3.V3_TECH" data-source-line="74" id="ent0021"><rect fill="#FFFFFF" height="110" rx="3" ry="3" style="stroke:#888888;stroke-width:1;" width="150.957" x="347.46" y="594"/><text fill="#000000" font-family="Arial" font-size="8" font-weight="700" lengthAdjust="spacing" textLength="130.957" x="357.46" y="611.4258">Graph Neural Network (GNN)</text><text fill="#000000" font-family="Arial" font-size="8" lengthAdjust="spacing" textLength="119.5273" x="357.46" y="621.4258">Maps deviceIds, IP addresses,</text><text fill="#000000" font-family="Arial" font-size="8" lengthAdjust="spacing" textLength="87.4844" x="357.46" y="631.4258">bank account hashes,</text><text fill="#000000" font-family="Arial" font-size="8" lengthAdjust="spacing" textLength="117.5977" x="357.46" y="641.4258">geolocations as graph nodes.</text><text fill="#000000" font-family="Arial" font-size="8" lengthAdjust="spacing" textLength="121.6055" x="357.46" y="651.4258">Identifies suurlimate clusters -</text><text fill="#000000" font-family="Arial" font-size="8" lengthAdjust="spacing" textLength="120.8828" x="357.46" y="661.4258">8 accounts funnelling to same</text><text fill="#000000" font-family="Arial" font-size="8" lengthAdjust="spacing" textLength="99.5" x="357.46" y="671.4258">UPI ID or sharing shifting</text><text fill="#000000" font-family="Arial" font-size="8" lengthAdjust="spacing" textLength="7.6328" x="357.46" y="681.4258">1.</text><text fill="#000000" font-family="Arial" font-size="8" lengthAdjust="spacing" textLength="54.1758" x="367.6358" y="681.4258">during storm.</text><text fill="#000000" font-family="Arial" font-size="8" lengthAdjust="spacing" textLength="93.6602" x="357.46" y="691.4258">&#171;GNN - node mapping&#187;</text></g><!--entity V3_SCENARIO--><g class="entity" data-qualified-name="FRAUD.V3.V3_SCENARIO" data-source-line="75" id="ent0022"><rect fill="#FFFFFF" height="60" rx="3" ry="3" style="stroke:#888888;stroke-width:1;" width="164.7813" x="340.55" y="519"/><text fill="#000000" font-family="Arial" font-size="8" lengthAdjust="spacing" textLength="144.7813" x="350.55" y="536.4258">Single bad actor runs 5-10 accounts</text><text fill="#000000" font-family="Arial" font-size="8" lengthAdjust="spacing" textLength="138.9023" x="350.55" y="546.4258">on cloned devices. Clusters all in a</text><text fill="#000000" font-family="Arial" font-size="8" lengthAdjust="spacing" textLength="126.9102" x="350.55" y="556.4258">disruption zone. Farms multiple</text><text fill="#000000" font-family="Arial" font-size="8" lengthAdjust="spacing" textLength="90.7109" x="350.55" y="566.4258">simultaneous payouts.</text></g><!--entity V2_TECH--><g class="entity" data-qualified-name="FRAUD.V2.V2_TECH" data-source-line="79" id="ent0024"><rect fill="#FFFFFF" height="80" rx="3" ry="3" style="stroke:#888888;stroke-width:1;" width="183.4023" x="331.24" y="369"/><text fill="#000000" font-family="Arial" font-size="8" font-weight="700" lengthAdjust="spacing" textLength="137.1328" x="341.24" y="386.4258">Historical time series profiling</text><text fill="#000000" font-family="Arial" font-size="8" lengthAdjust="spacing" textLength="140.9961" x="341.24" y="396.4258">ML builds baseline of rider's typical</text><text fill="#000000" font-family="Arial" font-size="8" lengthAdjust="spacing" textLength="116.5195" x="341.24" y="406.4258">zones, sessions. Session that</text><text fill="#000000" font-family="Arial" font-size="8" lengthAdjust="spacing" textLength="138.3867" x="341.24" y="416.4258">violates deviates from pattern just</text><text fill="#000000" font-family="Arial" font-size="8" lengthAdjust="spacing" textLength="163.4023" x="341.24" y="426.4258">as weather event approaches &#8594; flagged.</text><text fill="#000000" font-family="Arial" font-size="8" lengthAdjust="spacing" textLength="67.1641" x="341.24" y="436.4258">&#171;LSTM baseline&#187;</text></g><!--entity V2_SCENARIO--><g class="entity" data-qualified-name="FRAUD.V2.V2_SCENARIO" data-source-line="80" id="ent0025"><rect fill="#FFFFFF" height="50" rx="3" ry="3" style="stroke:#888888;stroke-width:1;" width="188.6875" x="328.59" y="304"/><text fill="#000000" font-family="Arial" font-size="8" lengthAdjust="spacing" textLength="162.7852" x="338.59" y="321.4258">Rider seizes storm warning. Logs in 1:55</text><text fill="#000000" font-family="Arial" font-size="8" lengthAdjust="spacing" textLength="168.6875" x="338.59" y="331.4258">PM, does zero work, waits for 2 PM trigger</text><text fill="#000000" font-family="Arial" font-size="8" lengthAdjust="spacing" textLength="152.1172" x="338.59" y="341.4258">to fire, collects payout for 'lost hours'.</text></g><!--entity V1_TECH--><g class="entity" data-qualified-name="FRAUD.V1.V1_TECH" data-source-line="84" id="ent0027"><rect fill="#FFFFFF" height="90" rx="3" ry="3" style="stroke:#888888;stroke-width:1;" width="165.6914" x="340.09" y="144"/><text fill="#000000" font-family="Arial" font-size="8" font-weight="700" lengthAdjust="spacing" textLength="110.5859" x="350.09" y="161.4258">Telemetry jitter analysis</text><text fill="#000000" font-family="Arial" font-size="8" lengthAdjust="spacing" textLength="135.1328" x="350.09" y="171.4258">Real gps bounces = drifts. Spoofs</text><text fill="#000000" font-family="Arial" font-size="8" lengthAdjust="spacing" textLength="142.5547" x="350.09" y="181.4258">are mathematically perfect or jump</text><text fill="#000000" font-family="Arial" font-size="8" lengthAdjust="spacing" textLength="139.9492" x="350.09" y="191.4258">erratically. Deep-learning classifier</text><text fill="#000000" font-family="Arial" font-size="8" lengthAdjust="spacing" textLength="145.6914" x="350.09" y="201.4258">distinguishes naturalistic movement</text><text fill="#000000" font-family="Arial" font-size="8" lengthAdjust="spacing" textLength="104.0898" x="350.09" y="211.4258">from algorithmic pivoting.</text><text fill="#000000" font-family="Arial" font-size="8" lengthAdjust="spacing" textLength="58.2813" x="350.09" y="221.4258">&#171;DL classifier&#187;</text></g><!--entity V1_SCENARIO--><g class="entity" data-qualified-name="FRAUD.V1.V1_SCENARIO" data-source-line="85" id="ent0028"><rect fill="#FFFFFF" height="50" rx="3" ry="3" style="stroke:#888888;stroke-width:1;" width="181.9492" x="331.96" y="79"/><text fill="#000000" font-family="Arial" font-size="8" lengthAdjust="spacing" textLength="150.2305" x="341.96" y="96.4258">Rider at home in clear weather. Mock</text><text fill="#000000" font-family="Arial" font-size="8" lengthAdjust="spacing" textLength="150.9844" x="341.96" y="106.4258">location app pins GPS inside flooded /</text><text fill="#000000" font-family="Arial" font-size="8" lengthAdjust="spacing" textLength="161.9492" x="341.96" y="116.4258">extreme-heat geotask to trigger payout.</text></g><!--entity HEALTH--><g class="entity" data-qualified-name="PRICE.HEALTH" data-source-line="100" id="ent0032"><rect fill="#C8E6C9" height="40" rx="3" ry="3" style="stroke:#888888;stroke-width:1;" width="110.4727" x="665.7" y="834"/><text fill="#000000" font-family="Arial" font-size="8" lengthAdjust="spacing" textLength="76.2734" x="675.7" y="851.4258">Health supplement</text><text fill="#000000" font-family="Arial" font-size="8" lengthAdjust="spacing" textLength="90.4727" x="675.7" y="861.4258">hourly congestion rate</text></g><!--entity SLAB--><g class="entity" data-qualified-name="PRICE.SLAB" data-source-line="101" id="ent0033"><rect fill="#C8E6C9" height="40" rx="3" ry="3" style="stroke:#888888;stroke-width:1;" width="106.2188" x="667.82" y="779"/><text fill="#000000" font-family="Arial" font-size="8" lengthAdjust="spacing" textLength="70.6758" x="677.82" y="796.4258">Slab-shield bonus</text><text fill="#000000" font-family="Arial" font-size="8" lengthAdjust="spacing" textLength="86.2188" x="677.82" y="806.4258">base + missed target</text></g><!--entity DAILY--><g class="entity" data-qualified-name="PRICE.DAILY" data-source-line="102" id="ent0034"><rect fill="#C8E6C9" height="30" rx="3" ry="3" style="stroke:#888888;stroke-width:1;" width="106.2148" x="667.83" y="734"/><text fill="#000000" font-family="Arial" font-size="8" lengthAdjust="spacing" textLength="86.2148" x="677.83" y="751.4258">Daily Income x cov %</text></g><!--entity FINAL_PREM--><g class="entity" data-qualified-name="PRICE.FINAL_PREM" data-source-line="103" id="ent0035"><rect fill="#4CAF50" height="40" rx="3" ry="3" style="stroke:#888888;stroke-width:1;" width="64.168" x="868.64" y="779"/><rect fill="#000000" height="3.5" width="3.5" x="887.64" y="789"/><text fill="#000000" font-family="Arial" font-size="8" lengthAdjust="spacing" textLength="19.0195" x="894.64" y="796.4258">Final</text><text fill="#000000" font-family="Arial" font-size="8" lengthAdjust="spacing" textLength="44.168" x="878.64" y="806.4258">premium**</text></g><!--entity FORMULA--><g class="entity" data-qualified-name="PRICE.FORMULA" data-source-line="104" id="ent0036"><rect fill="#A5D6A7" height="60" rx="3" ry="3" style="stroke:#888888;stroke-width:1;" width="157.3047" x="642.28" y="659"/><text fill="#000000" font-family="Arial" font-size="8" font-weight="700" lengthAdjust="spacing" textLength="133.3398" x="652.28" y="676.4258">Premium Calculation Formula</text><text fill="#000000" font-family="Arial" font-size="8" lengthAdjust="spacing" textLength="100.6602" x="652.28" y="686.4258">Base = income &#215; 1.5-2%</text><text fill="#000000" font-family="Arial" font-size="8" lengthAdjust="spacing" textLength="111.0117" x="652.28" y="696.4258">Adjusted = Base &#215; city_risk</text><text fill="#000000" font-family="Arial" font-size="8" lengthAdjust="spacing" textLength="137.3047" x="652.28" y="706.4258">Final = clamp(Adjusted, &#8377;29, &#8377;99)</text></g><!--entity UPI--><g class="entity" data-qualified-name="SETTLE.UPI" data-source-line="111" id="ent0038"><rect fill="#9FA8DA" height="50" rx="3" ry="3" style="stroke:#888888;stroke-width:1;" width="85.9141" x="1001.87" y="845"/><text fill="#000000" font-family="Arial" font-size="8" font-weight="700" lengthAdjust="spacing" textLength="65.9141" x="1011.87" y="862.4258">Hyper-fast UPI</text><text fill="#000000" font-family="Arial" font-size="8" lengthAdjust="spacing" textLength="60.8516" x="1011.87" y="872.4258">Razorpay PWA,</text><text fill="#000000" font-family="Arial" font-size="8" lengthAdjust="spacing" textLength="21.0508" x="1011.87" y="882.4258">&lt;60s</text></g><!--entity SETTLEMENT--><g class="entity" data-qualified-name="SETTLE.SETTLEMENT" data-source-line="112" id="ent0039"><rect fill="#7986CB" height="30" rx="3" ry="3" style="stroke:#888888;stroke-width:1;" width="72.8281" x="1127.79" y="855"/><text fill="#000000" font-family="Arial" font-size="8" font-weight="700" lengthAdjust="spacing" textLength="50.2852" x="1137.79" y="872.4258">Settlement</text><text fill="#000000" font-family="Arial" font-size="8" lengthAdjust="spacing" textLength="2.543" x="1188.0752" y="872.4258">&#160;</text></g><!--entity OUTCOME1--><g class="entity" data-qualified-name="SETTLE.OUTCOME1" data-source-line="113" id="ent0040"><rect fill="#C5CAE9" height="40" rx="3" ry="3" style="stroke:#888888;stroke-width:1;" width="72.5117" x="1240.61" y="877"/><rect fill="#000000" height="3.5" width="3.5" x="1259.61" y="887"/><text fill="#000000" font-family="Arial" font-size="8" lengthAdjust="spacing" textLength="36.5117" x="1266.61" y="894.4258">Outcome</text><text fill="#000000" font-family="Arial" font-size="8" lengthAdjust="spacing" textLength="46.1406" x="1250.61" y="904.4258">Recorded**</text></g><!--entity OUTCOME2--><g class="entity" data-qualified-name="SETTLE.OUTCOME2" data-source-line="114" id="ent0041"><rect fill="#C5CAE9" height="40" rx="3" ry="3" style="stroke:#888888;stroke-width:1;" width="72.5117" x="1240.61" y="822"/><rect fill="#000000" height="3.5" width="3.5" x="1259.61" y="832"/><text fill="#000000" font-family="Arial" font-size="8" lengthAdjust="spacing" textLength="36.5117" x="1266.61" y="839.4258">Outcome</text><text fill="#000000" font-family="Arial" font-size="8" lengthAdjust="spacing" textLength="46.1406" x="1250.61" y="849.4258">Recorded**</text></g><!--entity LEARNING--><g class="entity" data-qualified-name="SETTLE.LEARNING" data-source-line="115" id="ent0042"><rect fill="#7986CB" height="70" rx="3" ry="3" style="stroke:#888888;stroke-width:1;" width="110.4961" x="1353.13" y="822"/><rect fill="#000000" height="3.5" width="3.5" x="1372.13" y="832"/><text fill="#000000" font-family="Arial" font-size="8" lengthAdjust="spacing" textLength="56.4023" x="1379.13" y="839.4258">Update Active</text><text fill="#000000" font-family="Arial" font-size="8" lengthAdjust="spacing" textLength="64.8789" x="1363.13" y="849.4258">Learning Loop**</text><text fill="#000000" font-family="Arial" font-size="8" lengthAdjust="spacing" textLength="60.7227" x="1363.13" y="859.4258">Retrain models</text><text fill="#000000" font-family="Arial" font-size="8" lengthAdjust="spacing" textLength="73.5234" x="1363.13" y="869.4258">Re-score zone risk</text><text fill="#000000" font-family="Arial" font-size="8" lengthAdjust="spacing" textLength="90.4961" x="1363.13" y="879.4258">Deploy refined models</text></g><!--entity DA--><g class="entity" data-qualified-name="DA" data-source-line="46" id="ent0010"><rect fill="#FFFDE7" height="40" rx="3" ry="3" style="stroke:#888888;stroke-width:1;" width="69.1445" x="159.45" y="1033"/><text fill="#000000" font-family="Arial" font-size="8" lengthAdjust="spacing" textLength="19.1016" x="169.45" y="1050.4258">Data</text><text fill="#000000" font-family="Arial" font-size="8" lengthAdjust="spacing" textLength="49.1445" x="169.45" y="1060.4258">Aggregation</text></g><!--entity CONF_GATE--><g class="entity" data-qualified-name="CONF_GATE" data-source-line="92" id="ent0029"><rect fill="#FFD600" height="70" rx="3" ry="3" style="stroke:#888888;stroke-width:1;" width="105.1914" x="668.34" y="906"/><text fill="#000000" font-family="Arial" font-size="8" font-weight="700" lengthAdjust="spacing" textLength="74.3008" x="678.34" y="923.4258">Confidence Gate</text><text fill="#000000" font-family="Arial" font-size="8" lengthAdjust="spacing" textLength="77.0625" x="678.34" y="933.4258">&#9472;&#9472;&#9472;&#9472;&#9472;&#9472;&#9472;&#9472;&#9472;&#9472;&#9472;&#9472;&#9472;&#9472;&#9472;&#9472;</text><text fill="#000000" font-family="Arial" font-size="8" lengthAdjust="spacing" textLength="70.5977" x="678.34" y="943.4258">Dual-Source Gate</text><text fill="#000000" font-family="Arial" font-size="8" lengthAdjust="spacing" textLength="85.1914" x="678.34" y="953.4258">(2+ APIs must agree,</text><text fill="#000000" font-family="Arial" font-size="8" lengthAdjust="spacing" textLength="77.7031" x="678.34" y="963.4258">Confidence &#8805; 0.85)</text></g><!--entity FRAUD_GATE--><g class="entity" data-qualified-name="FRAUD_GATE" data-source-line="94" id="ent0030"><rect fill="#FF8A65" height="70" rx="3" ry="3" style="stroke:#888888;stroke-width:1;" width="122.2852" x="839.59" y="906"/><text fill="#000000" font-family="Arial" font-size="8" font-weight="700" lengthAdjust="spacing" textLength="50.2305" x="849.59" y="923.4258">Fraud Gate</text><text fill="#000000" font-family="Arial" font-size="8" lengthAdjust="spacing" textLength="77.0625" x="849.59" y="933.4258">&#9472;&#9472;&#9472;&#9472;&#9472;&#9472;&#9472;&#9472;&#9472;&#9472;&#9472;&#9472;&#9472;&#9472;&#9472;&#9472;</text><text fill="#000000" font-family="Arial" font-size="8" lengthAdjust="spacing" textLength="101.1914" x="849.59" y="943.4258">Multi-Vector Fraud Check</text><text fill="#000000" font-family="Arial" font-size="8" lengthAdjust="spacing" textLength="89.6719" x="849.59" y="953.4258">(Isolation Forest Score</text><text fill="#000000" font-family="Arial" font-size="8" lengthAdjust="spacing" textLength="102.2852" x="849.59" y="963.4258">&amp; Sequential Check Pass)</text></g><!--link GPS to DA--><g class="link" data-entity-1="ent0003" data-entity-2="ent0010" data-link-type="dependency" data-source-line="126" id="lnk43"><path d="M115.91,1183 C149.12,1183 189.62,1183 189.62,1183 C189.62,1183 189.62,1115.88 189.62,1079.31" fill="none" id="GPS-to-DA" style="stroke:#333333;stroke-width:1.5;"/><polygon fill="#333333" points="189.62,1073.31,185.62,1082.31,189.62,1078.31,193.62,1082.31,189.62,1073.31" style="stroke:#333333;stroke-width:1.5;"/></g><!--link GMAPS to DA--><g class="link" data-entity-1="ent0004" data-entity-2="ent0010" data-link-type="dependency" data-source-line="127" id="lnk44"><path d="M117.11,1143 C146.42,1143 179.62,1143 179.62,1143 C179.62,1143 179.62,1105.98 179.62,1079.42" fill="none" id="GMAPS-to-DA" style="stroke:#333333;stroke-width:1.5;"/><polygon fill="#333333" points="179.62,1073.42,175.62,1082.42,179.62,1078.42,183.62,1082.42,179.62,1073.42" style="stroke:#333333;stroke-width:1.5;"/></g><!--link DOWN to DA--><g class="link" data-entity-1="ent0005" data-entity-2="ent0010" data-link-type="dependency" data-source-line="128" id="lnk45"><path d="M111.88,1090.5 C138.7,1090.5 169.62,1090.5 169.62,1090.5 C169.62,1090.5 169.62,1087.98 169.62,1079.07" fill="none" id="DOWN-to-DA" style="stroke:#333333;stroke-width:1.5;"/><polygon fill="#333333" points="169.62,1073.07,165.62,1082.07,169.62,1078.07,173.62,1082.07,169.62,1073.07" style="stroke:#333333;stroke-width:1.5;"/></g><!--link PLATFORM to DA--><g class="link" data-entity-1="ent0006" data-entity-2="ent0010" data-link-type="dependency" data-source-line="129" id="lnk46"><path d="M119.93,1053 C132.94,1053 140.85,1053 153.06,1053" fill="none" id="PLATFORM-to-DA" style="stroke:#333333;stroke-width:1.5;"/><polygon fill="#333333" points="159.06,1053,150.06,1049,154.06,1053,150.06,1057,159.06,1053" style="stroke:#333333;stroke-width:1.5;"/></g><!--link NEWS to DA--><g class="link" data-entity-1="ent0007" data-entity-2="ent0010" data-link-type="dependency" data-source-line="130" id="lnk47"><path d="M100.85,1015.5 C129.33,1015.5 169.62,1015.5 169.62,1015.5 C169.62,1015.5 169.62,1018.02 169.62,1026.93" fill="none" id="NEWS-to-DA" style="stroke:#333333;stroke-width:1.5;"/><polygon fill="#333333" points="169.62,1032.93,173.62,1023.93,169.62,1027.93,165.62,1023.93,169.62,1032.93" style="stroke:#333333;stroke-width:1.5;"/></g><!--link CPCB to DA--><g class="link" data-entity-1="ent0008" data-entity-2="ent0010" data-link-type="dependency" data-source-line="131" id="lnk48"><path d="M114.66,963 C144.54,963 179.62,963 179.62,963 C179.62,963 179.62,1000.02 179.62,1026.58" fill="none" id="CPCB-to-DA" style="stroke:#333333;stroke-width:1.5;"/><polygon fill="#333333" points="179.62,1032.58,183.62,1023.58,179.62,1027.58,175.62,1023.58,179.62,1032.58" style="stroke:#333333;stroke-width:1.5;"/></g><!--link IMD to DA--><g class="link" data-entity-1="ent0009" data-entity-2="ent0010" data-link-type="dependency" data-source-line="132" id="lnk49"><path d="M113.61,913 C147.23,913 189.62,913 189.62,913 C189.62,913 189.62,987.81 189.62,1026.64" fill="none" id="IMD-to-DA" style="stroke:#333333;stroke-width:1.5;"/><polygon fill="#333333" points="189.62,1032.64,193.62,1023.64,189.62,1027.64,185.62,1023.64,189.62,1032.64" style="stroke:#333333;stroke-width:1.5;"/></g><!--link DA to OUTAGE--><g class="link" data-entity-1="ent0010" data-entity-2="ent0012" data-link-type="dependency" data-source-line="137" id="lnk50"><path d="M199.62,1073.36 C199.62,1128.75 199.62,1278 199.62,1278 C199.62,1278 297.68,1278 363.73,1278" fill="none" id="DA-to-OUTAGE" style="stroke:#333333;stroke-width:1.5;"/><polygon fill="#333333" points="369.73,1278,360.73,1274,364.73,1278,360.73,1282,369.73,1278" style="stroke:#333333;stroke-width:1.5;"/></g><!--link DA to CONGESTION--><g class="link" data-entity-1="ent0010" data-entity-2="ent0013" data-link-type="dependency" data-source-line="138" id="lnk51"><path d="M209.62,1073.36 C209.62,1112.19 209.62,1193 209.62,1193 C209.62,1193 301.89,1193 365.03,1193" fill="none" id="DA-to-CONGESTION" style="stroke:#333333;stroke-width:1.5;"/><polygon fill="#333333" points="371.03,1193,362.03,1189,366.03,1193,362.03,1197,371.03,1193" style="stroke:#333333;stroke-width:1.5;"/></g><!--link DA to BANDH--><g class="link" data-entity-1="ent0010" data-entity-2="ent0014" data-link-type="dependency" data-source-line="139" id="lnk52"><path d="M219.62,1073.45 C219.62,1088.19 219.62,1105.5 219.62,1105.5 C219.62,1105.5 309.99,1105.5 370.04,1105.5" fill="none" id="DA-to-BANDH" style="stroke:#333333;stroke-width:1.5;"/><polygon fill="#333333" points="376.04,1105.5,367.04,1101.5,371.04,1105.5,367.04,1109.5,376.04,1105.5" style="stroke:#333333;stroke-width:1.5;"/></g><!--link DA to AQI--><g class="link" data-entity-1="ent0010" data-entity-2="ent0015" data-link-type="dependency" data-source-line="140" id="lnk53"><path d="M228.79,1053 C265.81,1053 318.92,1053 362.2,1053" fill="none" id="DA-to-AQI" style="stroke:#333333;stroke-width:1.5;"/><polygon fill="#333333" points="368.2,1053,359.2,1049,363.2,1053,359.2,1057,368.2,1053" style="stroke:#333333;stroke-width:1.5;"/></g><!--link DA to FOG--><g class="link" data-entity-1="ent0010" data-entity-2="ent0016" data-link-type="dependency" data-source-line="141" id="lnk54"><path d="M219.62,1032.55 C219.62,1017.81 219.62,1000.5 219.62,1000.5 C219.62,1000.5 298.85,1000.5 358.95,1000.5" fill="none" id="DA-to-FOG" style="stroke:#333333;stroke-width:1.5;"/><polygon fill="#333333" points="364.95,1000.5,355.95,996.5,359.95,1000.5,355.95,1004.5,364.95,1000.5" style="stroke:#333333;stroke-width:1.5;"/></g><!--link DA to HEAT--><g class="link" data-entity-1="ent0010" data-entity-2="ent0017" data-link-type="dependency" data-source-line="142" id="lnk55"><path d="M209.62,1032.69 C209.62,996.12 209.62,923 209.62,923 C209.62,923 302.45,923 365.57,923" fill="none" id="DA-to-HEAT" style="stroke:#333333;stroke-width:1.5;"/><polygon fill="#333333" points="371.57,923,362.57,919,366.57,923,362.57,927,371.57,923" style="stroke:#333333;stroke-width:1.5;"/></g><!--link DA to RAIN--><g class="link" data-entity-1="ent0010" data-entity-2="ent0018" data-link-type="dependency" data-source-line="143" id="lnk56"><path d="M199.62,1032.64 C199.62,977.25 199.62,828 199.62,828 C199.62,828 303.11,828 368.76,828" fill="none" id="DA-to-RAIN" style="stroke:#333333;stroke-width:1.5;"/><polygon fill="#333333" points="374.76,828,365.76,824,369.76,828,365.76,832,374.76,828" style="stroke:#333333;stroke-width:1.5;"/></g><!--link OUTAGE to CONF_GATE--><g class="link" data-entity-1="ent0012" data-entity-2="ent0029" data-link-type="dependency" data-source-line="148" id="lnk57"><path d="M476.27,1278 C569.58,1278 752.62,1278 752.62,1278 C752.62,1278 752.62,1068.95 752.62,982.43" fill="none" id="OUTAGE-to-CONF_GATE" style="stroke:#333333;stroke-width:1.5;"/><polygon fill="#333333" points="752.62,976.43,748.62,985.43,752.62,981.43,756.62,985.43,752.62,976.43" style="stroke:#333333;stroke-width:1.5;"/></g><!--link CONGESTION to CONF_GATE--><g class="link" data-entity-1="ent0013" data-entity-2="ent0029" data-link-type="dependency" data-source-line="149" id="lnk58"><path d="M474.6,1203 C562.48,1203 731.62,1203 731.62,1203 C731.62,1203 731.62,1053.85 731.62,982.33" fill="none" id="CONGESTION-to-CONF_GATE" style="stroke:#333333;stroke-width:1.5;"/><polygon fill="#333333" points="731.62,976.33,727.62,985.33,731.62,981.33,735.62,985.33,731.62,976.33" style="stroke:#333333;stroke-width:1.5;"/></g><!--link BANDH to CONF_GATE--><g class="link" data-entity-1="ent0014" data-entity-2="ent0029" data-link-type="dependency" data-source-line="150" id="lnk59"><path d="M469.8,1128 C551.32,1128 710.62,1128 710.62,1128 C710.62,1128 710.62,1036.34 710.62,982.17" fill="none" id="BANDH-to-CONF_GATE" style="stroke:#333333;stroke-width:1.5;"/><polygon fill="#333333" points="710.62,976.17,706.62,985.17,710.62,981.17,714.62,985.17,710.62,976.17" style="stroke:#333333;stroke-width:1.5;"/></g><!--link AQI to CONF_GATE--><g class="link" data-entity-1="ent0015" data-entity-2="ent0029" data-link-type="dependency" data-source-line="151" id="lnk60"><path d="M477.55,1053 C555.57,1053 689.62,1053 689.62,1053 C689.62,1053 689.62,1015.25 689.62,982.44" fill="none" id="AQI-to-CONF_GATE" style="stroke:#333333;stroke-width:1.5;"/><polygon fill="#333333" points="689.62,976.44,685.62,985.44,689.62,981.44,693.62,985.44,689.62,976.44" style="stroke:#333333;stroke-width:1.5;"/></g><!--link FOG to CONF_GATE--><g class="link" data-entity-1="ent0016" data-entity-2="ent0029" data-link-type="dependency" data-source-line="152" id="lnk61"><path d="M480.75,962 C535.08,962 609.69,962 662.28,962" fill="none" id="FOG-to-CONF_GATE" style="stroke:#333333;stroke-width:1.5;"/><polygon fill="#333333" points="668.28,962,659.28,958,663.28,962,659.28,966,668.28,962" style="stroke:#333333;stroke-width:1.5;"/></g><!--link HEAT to CONF_GATE--><g class="link" data-entity-1="ent0017" data-entity-2="ent0029" data-link-type="dependency" data-source-line="153" id="lnk62"><path d="M474.16,928.5 C528.25,928.5 607.1,928.5 661.87,928.5" fill="none" id="HEAT-to-CONF_GATE" style="stroke:#333333;stroke-width:1.5;"/><polygon fill="#333333" points="667.87,928.5,658.87,924.5,662.87,928.5,658.87,932.5,667.87,928.5" style="stroke:#333333;stroke-width:1.5;"/></g><!--link RAIN to CONF_GATE--><g class="link" data-entity-1="ent0018" data-entity-2="ent0029" data-link-type="dependency" data-source-line="154" id="lnk63"><path d="M471.21,846 C480.09,846 486.62,846 486.62,846 C486.62,846 486.62,924 486.62,924 C486.62,924 592.95,924 662.06,924" fill="none" id="RAIN-to-CONF_GATE" style="stroke:#333333;stroke-width:1.5;"/><polygon fill="#333333" points="668.06,924,659.06,920,663.06,924,659.06,928,668.06,924" style="stroke:#333333;stroke-width:1.5;"/></g><!--link V3_TECH to CONF_GATE--><g class="link" data-entity-1="ent0021" data-entity-2="ent0029" data-link-type="dependency" data-source-line="159" id="lnk64"><path d="M492.62,704.39 C492.62,783.53 492.62,919.5 492.62,919.5 C492.62,919.5 594.53,919.5 661.98,919.5" fill="none" id="V3_TECH-to-CONF_GATE" style="stroke:#333333;stroke-width:1.5;"/><polygon fill="#333333" points="667.98,919.5,658.98,915.5,662.98,919.5,658.98,923.5,667.98,919.5" style="stroke:#333333;stroke-width:1.5;"/></g><!--link V2_TECH to CONF_GATE--><g class="link" data-entity-1="ent0024" data-entity-2="ent0029" data-link-type="dependency" data-source-line="160" id="lnk65"><path d="M510.62,449.13 C510.62,568.81 510.62,915 510.62,915 C510.62,915 599.56,915 661.86,915" fill="none" id="V2_TECH-to-CONF_GATE" style="stroke:#333333;stroke-width:1.5;"/><polygon fill="#333333" points="667.86,915,658.86,911,662.86,915,658.86,919,667.86,915" style="stroke:#333333;stroke-width:1.5;"/></g><!--link V1_TECH to CONF_GATE--><g class="link" data-entity-1="ent0027" data-entity-2="ent0029" data-link-type="dependency" data-source-line="161" id="lnk66"><path d="M505.94,189 C543.92,189 580.62,189 580.62,189 C580.62,189 580.62,910.5 580.62,910.5 C580.62,910.5 622.15,910.5 661.89,910.5" fill="none" id="V1_TECH-to-CONF_GATE" style="stroke:#333333;stroke-width:1.5;"/><polygon fill="#333333" points="667.89,910.5,658.89,906.5,662.89,910.5,658.89,914.5,667.89,910.5" style="stroke:#333333;stroke-width:1.5;"/></g><!--link CONF_GATE to FRAUD_GATE--><g class="link" data-entity-1="ent0029" data-entity-2="ent0030" data-link-type="dependency" data-source-line="166" id="lnk67"><path d="M773.91,941 C794.42,941 812.03,941 833.28,941" fill="none" id="CONF_GATE-to-FRAUD_GATE" style="stroke:#333333;stroke-width:1.5;"/><polygon fill="#333333" points="839.28,941,830.28,937,834.28,941,830.28,945,839.28,941" style="stroke:#333333;stroke-width:1.5;"/></g><!--link HEALTH to FINAL_PREM--><g class="link" data-entity-1="ent0032" data-entity-2="ent0035" data-link-type="dependency" data-source-line="171" id="lnk68"><path d="M776.5,839.5 C825.98,839.5 890.62,839.5 890.62,839.5 C890.62,839.5 890.62,835.38 890.62,825.25" fill="none" id="HEALTH-to-FINAL_PREM" style="stroke:#333333;stroke-width:1.5;"/><polygon fill="#333333" points="890.62,819.25,886.62,828.25,890.62,824.25,894.62,828.25,890.62,819.25" style="stroke:#333333;stroke-width:1.5;"/></g><!--link SLAB to FINAL_PREM--><g class="link" data-entity-1="ent0033" data-entity-2="ent0035" data-link-type="dependency" data-source-line="172" id="lnk69"><path d="M774.39,805.67 C804.93,805.67 836.22,805.67 862.34,805.67" fill="none" id="SLAB-to-FINAL_PREM" style="stroke:#333333;stroke-width:1.5;"/><polygon fill="#333333" points="868.34,805.67,859.34,801.67,863.34,805.67,859.34,809.67,868.34,805.67" style="stroke:#333333;stroke-width:1.5;"/></g><!--link DAILY to FINAL_PREM--><g class="link" data-entity-1="ent0034" data-entity-2="ent0035" data-link-type="dependency" data-source-line="173" id="lnk70"><path d="M774.17,749 C827.47,749 901.62,749 901.62,749 C901.62,749 901.62,758.82 901.62,772.66" fill="none" id="DAILY-to-FINAL_PREM" style="stroke:#333333;stroke-width:1.5;"/><polygon fill="#333333" points="901.62,778.66,905.62,769.66,901.62,773.66,897.62,769.66,901.62,778.66" style="stroke:#333333;stroke-width:1.5;"/></g><!--link FORMULA to FINAL_PREM--><g class="link" data-entity-1="ent0036" data-entity-2="ent0035" data-link-type="dependency" data-source-line="174" id="lnk71"><path d="M788.62,719.44 C788.62,749.93 788.62,792.33 788.62,792.33 C788.62,792.33 829.19,792.33 862.3,792.33" fill="none" id="FORMULA-to-FINAL_PREM" style="stroke:#333333;stroke-width:1.5;"/><polygon fill="#333333" points="868.3,792.33,859.3,788.33,863.3,792.33,859.3,796.33,868.3,792.33" style="stroke:#333333;stroke-width:1.5;"/></g><!--link FINAL_PREM to UPI--><g class="link" data-entity-1="ent0035" data-entity-2="ent0038" data-link-type="dependency" data-source-line="175" id="lnk72"><path d="M911.62,819.48 C911.62,837.03 911.62,859.5 911.62,859.5 C911.62,859.5 956.68,859.5 995.58,859.5" fill="none" id="FINAL_PREM-to-UPI" style="stroke:#333333;stroke-width:1.5;"/><polygon fill="#333333" points="1001.58,859.5,992.58,855.5,996.58,859.5,992.58,863.5,1001.58,859.5" style="stroke:#333333;stroke-width:1.5;"/></g><!--link FRAUD_GATE to UPI--><g class="link" data-entity-1="ent0030" data-entity-2="ent0038" data-link-type="dependency" data-source-line="180" id="lnk73"><path d="M947.62,905.54 C947.62,894.19 947.62,884.5 947.62,884.5 C947.62,884.5 969.66,884.5 995.63,884.5" fill="none" id="FRAUD_GATE-to-UPI" style="stroke:#333333;stroke-width:1.5;"/><polygon fill="#333333" points="1001.63,884.5,992.63,880.5,996.63,884.5,992.63,888.5,1001.63,884.5" style="stroke:#333333;stroke-width:1.5;"/></g><!--link UPI to SETTLEMENT--><g class="link" data-entity-1="ent0038" data-entity-2="ent0039" data-link-type="dependency" data-source-line="185" id="lnk74"><path d="M1088.26,870 C1101.06,870 1108.94,870 1121.29,870" fill="none" id="UPI-to-SETTLEMENT" style="stroke:#333333;stroke-width:1.5;"/><polygon fill="#333333" points="1127.29,870,1118.29,866,1122.29,870,1118.29,874,1127.29,870" style="stroke:#333333;stroke-width:1.5;"/></g><!--link SETTLEMENT to OUTCOME1--><g class="link" data-entity-1="ent0039" data-entity-2="ent0040" data-link-type="dependency" data-source-line="186" id="lnk75"><path d="M1201.09,881 C1213.67,881 1221.72,881 1234.28,881" fill="none" id="SETTLEMENT-to-OUTCOME1" style="stroke:#333333;stroke-width:1.5;"/><polygon fill="#333333" points="1240.28,881,1231.28,877,1235.28,881,1231.28,885,1240.28,881" style="stroke:#333333;stroke-width:1.5;"/></g><!--link SETTLEMENT to OUTCOME2--><g class="link" data-entity-1="ent0039" data-entity-2="ent0041" data-link-type="dependency" data-source-line="187" id="lnk76"><path d="M1201.09,858.5 C1213.67,858.5 1221.72,858.5 1234.28,858.5" fill="none" id="SETTLEMENT-to-OUTCOME2" style="stroke:#333333;stroke-width:1.5;"/><polygon fill="#333333" points="1240.28,858.5,1231.28,854.5,1235.28,858.5,1231.28,862.5,1240.28,858.5" style="stroke:#333333;stroke-width:1.5;"/></g><!--link OUTCOME2 to LEARNING--><g class="link" data-entity-1="ent0041" data-entity-2="ent0042" data-link-type="dependency" data-source-line="188" id="lnk77"><path d="M1313.5,842 C1325.66,842 1333.48,842 1346.75,842" fill="none" id="OUTCOME2-to-LEARNING" style="stroke:#333333;stroke-width:1.5;"/><polygon fill="#333333" points="1352.75,842,1343.75,838,1347.75,842,1343.75,846,1352.75,842" style="stroke:#333333;stroke-width:1.5;"/></g><?plantuml-src dLZTRjlA4RxtKqnZvCHnB4UMBSSsaW2qH2b2zNSaES4110HhSIKnffOykvGTfJZ0QIyAzBOuGFi2lUzjRzityPFqcoKfKuhYs4SmO79tTcPs_huP_Y6UofcaA12-sZ9Nleg45ZEw5AEhYGxdogk4GQXfksP_EGfFZiKyY6kXYll-5qcdc_VQ0jmTxOiWjs-cmWjlV3MXiGYCpEq4lfBn8f8KwdWQvZPKw4aZ8peevnQrK5UyU5JCBGgjmvjKwqFxMzySJFtHbPB6qC5-UIlFJuvYeIQ1f3zj4Ps7sfCwvNHYVxpw3SiGBKt1PBs4GYkfwHZlNU5vVE6ZhL_o4YDm4vCDyexjBy_re9YznGjeU1a6NexlkimJbXF8SKnnIDgVJ6FoVBwV7wgjhMVqvfi_R5OwpOjMcmxEgE-s-ovrdRRRlFzGTf4dwGcXPF24X4avR5UFtPFQAtlFEoi_wVcuCTMxVHfeCP9FYFW8tbV9wc78_riYCkHq6nbPoradh8OtofCn5aBDL0bXjVEXlKhN3KGy3lMCMk7eAc49kcxJ6TGwlTOgRLlUc5HezWDjs_sm9hlIhPpJI-f4KZa_FideU7MLxlQVVswqglH12gHUfYMJOfMTzZ3VbCwewWmSSkhrdbjt1erE-_wJUIk9M0oLCvbeEH4S4FRsLSV6SjLzzL0T3izeq6lKwswFUXTDj__0267nb9DEFwooiTfaAqbw5H4ugrRStUtCOx3RtHsgSh68hGWbm-oH6b7ipwGPghTqL2vd6_pAT3DVqPTGIIkaSp5mwWXEzx1MgbM_ab09rKGQLf6b84AlPM2Pqrig5OjFX-fI6CabYmfaHg6Mz4NgSAWqXxKXY4AHGwMpmYgTTjtjiwDmgKEtN2j_9V1SA6_Ailue5pUe1fJ4ilI6wWLACZPVQgNuvRZyb6ov84-7aUL_xhIhxwozJjo3hrWxFpQOCMm28x01zkXm-cAeRBWs6iYQptjavBNKVhmOAYM5fb4WZD784EbP2U01MvtKokxfL_nhuOJvl_UDV-a7u46lKR7Ou4DbkTCudEG4u45ntOgakB9Meb052okcrgb_qoNla3Ki9s5v-xT_qT7HV_zToI-KiXKaMKzwv0HInoHG-QuJhxzpdG7RoJrttQy4z823gm9AvTdivLGF5Gh6tSjfyOMD9JCtCOwa5kevZVPIzmVdyj4PrNhEHPNUkvL1f_VWF78hZQgBxEdsEWESH10wthLG8rowfiNS8qGClHU1xoLvLXUnD8c9hJYEbMAMMqksxstrf4EmQyiOOGZt4r0fc1jcijDVmC7FBPltXzQEHRTe2_kQAUjQH5Fmc6iHPAnefzvkFsS3ssBkoMj_91iUyhRH9K2P1YfBiyUPfQxWj14WBQQfC5ExEf50nv6zZM459bQ4xGtsuJDFgjWV-zB0BNCT-3DS654C5t4w5eRg96DfQ3n7a0S1no0Gqg1D6QgBReCQLIGMToYQjypK7yTu6AfjykR94gmpWxJNht4L68cbqqn44JRVlatjyX4EURTkahvl_ryAZyCHKlGSroWN3efBjOOA9Xu5o4ylDOxPfqfs0n44N5HGl3tVw7balSh9l4yreMU6PkYw_2Z0LOpFpq3XS6xWsqKuZyr-fbo_uhQTNgC31N_PvFiIXn8d3EVn2sge68PDOYfXKRhFx-zyDf4_4ccnD4Xvk2JIuTXdUrllD-boxWUUeMK93STaw-OpG-W0-VXGyTqCroN3iGTJz9CdYgSY7gfhFmmufgsfxCDOXznKnJ2Neaymsr11tvi4QucB3af115N42155jt_zEuq3CPb8ptgqsH-qbXfbpYnjT6RIkXY9rimaCK4tGdDDswTcEB7L_-2iN1wgRckFl11K30x4MR07KfzZqDgwsw8O7Tf4egmW5CTeq_PeX8I3iCntblHP41eaGpZNvjb-fjltV7a0N_PX4NJWw4wurUf78JoX9Wc7W_jSEP01feDOB-YJppP5HH71mlY6VTYJO3b15byYT16ez0PWX7HXDx481BFGd1eyOa01U3HOeE3hCKHmadsQpo8WWTRPvZvLfOmAWKmCcG0G9xIs4S-9EFUv590ICPSLNXlHBBo6bWg-jkuNmGJX5qzds8hywv2FMUzMcpcEcNSFxl6kO6iZWdtEIKR4D93sRTyuL5ajuf22A6LRLr0Rd4PSXQWC7ht45J_76XeMfZXEg66nC5TSTLAtfpxUpnHQSUc3KQHyHkW3lzU5hJSuOwWAvrbiOAVU_lRhe_w6gZeNGQ6Fe4ov3DLEwGNtr5oE4Ay2ZPv4xSu9OrWjxf-KdsUDKUqZgywHM3qk5hTMjKomxFShsEAYM4ZJ8M5McKhstqx3S05X3zRGlK7PFdTnG_K32itFSqOJXBWbnaHZpFCxy5mgVE8Sbn_gekCpO7MZOZ7R-Uc1C9yxaKmfzdqRo5sh7QqFLEYFWdWA-8kY8Cq9hXV8kz6ocSNO72yxeUO0FMFbn3skdAvowWVYiW3uau6715TpatIxn6qFCDgZMEY9Z9CPh-cSR-PI5JvaDzI8q-WpbBYcf-cqqMZ-jFaCFEuhhluHaiQVptPt4xCtsaxpOxVdjcZxgEBKoiNrOzs4dYeY6Ctl_0eW51mvvwp-6wIdLUP__-3flr125-zuZ1IuqXkoDDWQ0Va-QjyWIAmos4Bfc4Kx6UqUtVxbFwLJ--_qD0qCp8uNJOnHJhbwxBnwUEg-ua5xC6YwBRSzWAkRhjDhFtZUNZ-OZjsyZ5wqwbPhjVKm0KWlK8WBOu6OHzTZoxdu4cfK8kf-S92khu-BIQ_8JT7sQSqvgJhhJFeoZfCmszsbd5YhpVQhqvFZzU7NZcriVuQF4KymNkfUp6ALJii575NA5SSzVUIvqhVENKGUTu6sdS7fPeOjpJ2C4XIBDHfuW8Wd0yFlXNIKG-z1IGXKPHI42_0TSwUVabhfrk2DTdrvs-_xlCzDU_-YrN9wFz7E6AXYFyyyl__STzawlLxdGvzkV_qj_UJ2lGrSTkynXYlxAnJUCh7zf99xvoyd-Vti2qdspbz1ylls6qZkdMUm_FiZBb5rx0qUyO419rXCCjHdRtTJTxPYv-Ji1IDjzeYnCtla2J5xvf7kCNglA6olmFW6dxTHjHaqxkULVfB8RBR4ngtSvuFLZMJktt22ntNQjC43ziODEnblsh1pxQQDHnXcPSHzl67IcMfDVjgShwyUR5fzXAuFQAJkkXORFCkUu35Y7jmCf42TsVyE2hSizDAcdGHXD-raEBLXvmvZUGUb__4UjZPXzzvXmVqySltKxn3wME1aECiPBATaZbDQHomWVMEzjBL4deHJ1WN_1m00?></g></svg>